HIERARCHY
ROOT Hips
{
	OFFSET	0.00	0.00	0.00
	CHANNELS 6 Xposition Yposition Zposition Zrotation Xrotation Yrotation
	JOINT LeftUpLeg
	{
		OFFSET	 0.126116	-0.014019	-0.065224
		CHANNELS 3 Zrotation Xrotation Yrotation
		JOINT LeftLeg
		{
			OFFSET	 0.000000	 0.000000	 0.569914
			CHANNELS 3 Zrotation Xrotation Yrotation
			JOINT LeftFoot
			{
				OFFSET	 0.000000	 0.000000	 0.544423
				CHANNELS 3 Zrotation Xrotation Yrotation
				JOINT LeftToeBase
				{
					OFFSET	 0.000000	 0.000000	 0.207117
					CHANNELS 3 Zrotation Xrotation Yrotation
					End Site
					{
						OFFSET	 0.000000	 0.000000	 0.207117
					}
				}
			}
		}
	}
	JOINT RightUpLeg
	{
		OFFSET	-0.124023	-0.008373	-0.065224
		CHANNELS 3 Zrotation Xrotation Yrotation
		JOINT RightLeg
		{
			OFFSET	 0.000000	 0.000000	 0.570047
			CHANNELS 3 Zrotation Xrotation Yrotation
			JOINT RightFoot
			{
				OFFSET	 0.000000	 0.000000	 0.544354
				CHANNELS 3 Zrotation Xrotation Yrotation
				JOINT RightToeBase
				{
					OFFSET	 0.000000	 0.000000	 0.207540
					CHANNELS 3 Zrotation Xrotation Yrotation
					End Site
					{
						OFFSET	 0.000000	 0.000000	 0.207540
					}
				}
			}
		}
	}
	JOINT Spine
	{
		OFFSET	 0.000184	-0.007763	 0.117403
		CHANNELS 3 Zrotation Xrotation Yrotation
		JOINT Spine1
		{
			OFFSET	 0.000000	 0.000000	 0.137269
			CHANNELS 3 Zrotation Xrotation Yrotation
			JOINT Spine2
			{
				OFFSET	 0.000000	 0.000000	 0.156879
				CHANNELS 3 Zrotation Xrotation Yrotation
				JOINT LeftShoulder
				{
					OFFSET	 0.080501	-0.002496	 0.160144
					CHANNELS 3 Zrotation Xrotation Yrotation
					JOINT LeftArm
					{
						OFFSET	 0.000000	 0.000000	 0.164363
						CHANNELS 3 Zrotation Xrotation Yrotation
						JOINT LeftForeArm
						{
							OFFSET	 0.000000	 0.000000	 0.364576
							CHANNELS 3 Zrotation Xrotation Yrotation
							JOINT LeftHand
							{
								OFFSET	 0.000000	 0.000000	 0.360812
								CHANNELS 3 Zrotation Xrotation Yrotation
								JOINT LeftHandIndex1
								{
									OFFSET	 0.000000	 0.000000	 0.086006
									CHANNELS 3 Zrotation Xrotation Yrotation
									JOINT LeftHandIndex2
									{
										OFFSET	 0.000000	 0.000000	 0.047236
										CHANNELS 3 Zrotation Xrotation Yrotation
										JOINT LeftHandIndex3
										{
											OFFSET	-0.004284	-0.000551	 0.038166
											CHANNELS 3 Zrotation Xrotation Yrotation
											End Site
											{
												OFFSET	-0.004284	-0.000551	 0.038166
											}
										}
									}
								}
							}
						}
					}
				}
				JOINT Neck
				{
					OFFSET	 0.000000	 0.000000	 0.176489
					CHANNELS 3 Zrotation Xrotation Yrotation
					JOINT Head
					{
						OFFSET	 0.000000	-0.001747	 0.077940
						CHANNELS 3 Zrotation Xrotation Yrotation
						End Site
						{
							OFFSET	 0.000000	-0.001747	 0.077940
						}
					}
				}
				JOINT RightShoulder
				{
					OFFSET	-0.080363	 0.000306	 0.159706
					CHANNELS 3 Zrotation Xrotation Yrotation
					JOINT RightArm
					{
						OFFSET	 0.000000	 0.000000	 0.164196
						CHANNELS 3 Zrotation Xrotation Yrotation
						JOINT RightForeArm
						{
							OFFSET	 0.000000	 0.000000	 0.365611
							CHANNELS 3 Zrotation Xrotation Yrotation
							JOINT RightHand
							{
								OFFSET	 0.000000	 0.000000	 0.360648
								CHANNELS 3 Zrotation Xrotation Yrotation
								JOINT RightHandIndex1
								{
									OFFSET	 0.000000	 0.000000	 0.069977
									CHANNELS 3 Zrotation Xrotation Yrotation
									JOINT RightHandIndex2
									{
										OFFSET	 0.000000	 0.000000	 0.052305
										CHANNELS 3 Zrotation Xrotation Yrotation
										JOINT RightHandIndex3
										{
											OFFSET	 0.009002	-0.000782	 0.042196
											CHANNELS 3 Zrotation Xrotation Yrotation
											End Site
											{
												OFFSET	 0.009002	-0.000782	 0.042196
											}
										}
									}
								}
							}
						}
					}
				}
			}
		}
	}
}
MOTION
Frames:    8
Frame Time: 0.03333334
-0.057709	-2.249816	 1.159849	 4.538544	-1.618338	-3.594137	 30.679200	-14.568820	-177.340100	 0.712883	-50.271030	 0.236207	 119.940200	 82.377980	-123.966300	-2.370598	 31.413840	-0.065375	-35.257380	-37.085540	-176.673500	 12.972990	-59.813290	 11.926170	-1.162257	 77.754330	 9.161970	 2.358292	 33.099460	 0.105536	-2.397995	 8.847511	 0.983147	 1.400910	 3.243935	 2.856456	-7.952449	-2.816589	-3.700355	-93.847110	 58.928060	 175.587300	 9.355258	 25.678360	-41.075020	 17.326400	-3.222612	-9.612479	-9.415849	-4.133810	-7.438705	-4.869280	 19.244020	-2.786486	-3.887629	 21.394610	 2.208951	-4.808254	 5.545551	 0.146962	-0.102713	-5.043131	 0.170472	-9.945304	 1.794972	 2.195464	 89.807660	 61.613040	-179.939300	-18.304210	 47.952730	 13.328070	-19.801570	-3.285788	 9.654413	 5.541588	 8.949896	-0.952431	 6.299334	 25.456740	-0.559792	 1.804509	 45.347040	-6.920790	 0.437399	 24.664720	 3.613566
-0.060302	-2.311770	 1.157220	 5.835903	-0.691662	-3.630109	 28.727880	-12.417650	-178.776600	 1.456213	-49.286240	 0.836464	 136.155000	 82.675090	-140.157400	-2.368334	 31.791040	-0.073917	-40.351330	-40.363010	 177.784800	 12.400300	-51.825570	 10.413680	-25.087610	 81.827040	 32.749690	 2.359032	 32.991800	 0.103032	-10.151220	 8.273038	 0.809022	 1.232069	 3.282270	 2.999305	-8.184495	-3.074639	-3.740697	-94.133890	 59.019380	 174.963900	 7.248385	 22.078450	-41.439000	 19.552070	-4.359073	-11.003950	-8.742642	-4.276242	-9.092986	-4.863400	 19.401670	-2.798353	-3.873138	 21.579990	 2.194233	-4.803957	 5.596250	 0.143995	-0.033708	-5.108799	 0.238820	-9.925883	 1.747806	 1.940106	 89.705700	 61.738440	 179.817200	-18.214260	 49.957550	 10.777580	-23.584710	-4.439685	 11.043360	 5.568229	 9.719794	-1.529651	 6.274485	 23.422900	-0.553457	 2.056288	 43.281730	-7.144742	 0.827704	 22.938150	 3.418369
-0.063988	-2.392020	 1.148258	 6.540817	 0.425470	-4.131071	 27.306340	-9.151245	 179.689100	 1.848489	-47.843120	 1.108944	 160.551700	 81.945660	-164.135900	-2.363353	 32.581260	-0.091986	-43.124590	-43.358810	 172.108700	 11.750420	-41.733510	 8.409387	-51.607070	 82.867410	 57.575680	 2.358996	 32.995730	 0.103125	-18.714070	 7.306814	 1.038480	 1.085620	 3.861813	 3.114196	-8.373795	-3.481778	-3.815540	-94.416240	 58.917430	 174.377700	 4.536786	 18.432140	-41.879520	 21.885690	-5.865057	-12.490550	-9.073238	-5.203089	-8.752904	-4.838886	 19.958690	-2.821276	-3.841364	 21.983150	 2.161957	-4.783658	 5.835068	 0.129968	 0.004612	-5.216918	 0.327477	-9.978057	 1.678951	 1.844858	 89.514730	 61.965180	 179.355100	-17.537710	 52.370740	 5.716167	-28.493640	-8.659794	 15.974830	 5.225646	 10.446010	-3.263822	 6.222837	 20.419220	-0.652528	 2.354770	 40.605590	-7.406515	 1.479068	 19.941050	 3.114877
-0.069225	-2.466450	 1.135568	 6.821341	 0.713529	-4.546657	 26.145270	-5.060751	 177.766100	 2.081592	-45.994990	 1.243723	 178.847000	 81.633620	 178.119100	-2.346696	 34.900880	-0.146496	-42.580910	-47.336190	 168.736900	 11.637960	-37.251910	 7.578294	-97.781970	 83.851910	 102.206600	 2.341911	 35.289150	 0.157511	-25.786240	 6.989474	 1.316912	 0.966478	 4.545317	 3.110358	-8.409867	-3.872300	-3.831793	-94.523690	 58.883140	 174.154700	 2.139301	 16.556540	-42.440820	 24.138820	-7.226941	-13.585220	-9.865077	-5.852527	-8.695625	-4.835080	 20.403880	-2.931464	-3.802514	 22.470540	 2.122490	-4.748416	 6.247684	 0.105517	 0.071661	-5.350574	 0.351464	-9.905533	 1.649099	 1.606387	 89.389020	 62.003700	 179.050500	-15.994700	 53.667150	 2.484720	-33.143510	-10.146770	 16.653550	 5.342554	 10.256570	-5.300989	 6.174482	 17.399210	-0.707351	 2.740942	 36.726930	-7.738088	 2.115437	 16.877680	 2.847139
-0.078683	-2.558188	 1.119456	 7.238184	 0.583605	-4.282686	 24.597430	 0.200614	 174.664600	 2.644485	-42.758320	 1.556335	-150.955000	 84.056700	 148.756300	-2.276073	 41.820020	-0.325543	-42.260880	-50.724160	 165.832700	 11.342640	-37.177850	 7.381848	-64.428110	 81.506680	 70.190670	 2.338906	 35.653660	 0.166376	-33.064010	 7.031308	 1.104075	 0.799899	 4.550642	 2.968918	-8.402630	-3.926675	-3.812361	-94.513710	 59.217990	 174.120500	 0.203762	 15.997090	-42.493950	 26.729780	-8.682773	-14.558320	-10.981520	-7.286930	-9.865677	-4.878714	 20.611560	-3.247266	-3.763881	 22.948900	 2.083265	-4.684710	 6.987664	 0.060962	 0.187510	-5.481049	 0.275501	-9.661837	 1.763573	 1.341382	 89.355770	 61.640480	 178.984000	-14.115610	 54.281470	-1.600285	-37.450280	-12.408450	 17.938620	 5.681669	 9.228370	-6.993739	 6.194787	 13.882200	-0.391744	 3.028544	 33.491840	-7.978724	 2.801283	 13.436480	 2.592863
-0.088575	-2.649563	 1.109459	 7.959840	-0.152474	-3.067293	 23.922540	 5.548521	 170.168800	 0.961585	-39.399960	 0.386471	-61.462600	 82.654260	 63.071070	-2.069574	 52.795930	-0.692793	-38.693570	-48.322840	 167.034900	 7.511395	-37.969850	 5.109710	-39.613550	 72.234640	 52.345330	 2.337923	 35.771050	 0.169238	-38.361790	 7.168607	-0.036264	 0.296983	 4.426410	 2.734866	-8.449504	-3.634792	-3.869733	-94.424450	 59.242710	 174.308000	-0.285721	 15.461530	-41.739590	 28.115730	-9.740367	-15.166790	-11.781860	-7.076523	-9.794843	-4.895424	 20.809950	-3.409729	-3.744735	 23.183800	 2.063824	-4.605033	 7.902015	 0.004657	 0.311028	-5.448334	 0.259885	-9.437201	 2.008271	 1.728453	 89.293660	 61.407400	 178.845500	-12.972820	 54.025930	-1.322947	-40.910330	-9.883180	 15.141750	 5.509592	 8.377127	-7.181902	 6.305048	 10.980840	 0.205061	 3.214523	 31.224260	-8.130942	 3.274830	 10.983700	 2.439369
-0.101026	-2.760633	 1.103975	 10.005860	-1.269928	-1.554035	 22.652340	 7.621335	 164.779900	 0.967250	-42.340180	 0.413912	-20.961010	 67.378930	 29.224310	-1.153062	 69.792710	-1.839703	-38.610030	-43.745970	 168.202700	 9.623500	-42.224950	 7.018810	-29.653640	 65.203900	 44.908640	 2.344924	 34.914730	 0.148467	-42.253380	 7.408998	-1.172817	-0.465938	 4.210111	 2.011159	-8.702578	-3.127609	-3.724042	-94.280080	 59.233440	 174.619300	 0.992670	 15.405750	-40.719610	 29.562480	-10.608130	-15.608940	-11.610360	-4.967804	-9.585928	-4.836453	 21.206920	-3.194320	-3.689819	 23.849310	 2.008088	-4.516173	 8.907004	-0.058869	 0.402895	-5.340567	 0.255555	-9.363885	 2.536992	 2.032529	 89.053760	 61.005270	 178.302600	-11.940450	 53.527360	-2.108857	-41.752560	-10.747370	 15.583650	 6.043084	 7.859075	-5.391508	 6.363388	 8.705364	 0.479453	 3.383844	 29.030540	-8.266884	 3.620754	 9.156640	 2.339178
-0.114340	-2.854212	 1.104866	 10.203000	-1.704366	-0.053914	 28.430460	 2.089475	 156.988500	 1.844370	-51.481450	 1.167180	-6.965082	 48.843720	 27.952000	-1.780413	 60.915950	-1.094209	-41.192330	-41.653570	 167.585200	 8.952641	-49.688480	 7.434391	-24.374680	 67.933050	 40.244810	 2.368407	 31.520920	 0.069296	-41.265230	 7.467634	-2.146453	-0.543584	 3.234196	 1.731060	-8.744470	-2.423505	-3.764216	-94.090970	 59.868040	 174.931500	 2.885211	 17.028070	-39.710700	 31.717060	-10.981880	-15.771080	-10.801210	-3.691101	-9.818075	-4.762888	 21.504540	-2.848822	-3.618590	 24.694880	 1.935828	-4.462535	 9.506245	-0.097593	 0.335543	-5.377491	 0.175330	-9.443127	 2.824929	 2.133540	 89.009570	 60.266410	 178.243100	-11.561020	 52.869780	-2.564217	-40.902990	-11.103240	 15.762850	 7.495387	 6.716005	-3.422149	 6.400402	 9.134096	 0.624358	 3.365720	 29.271430	-8.252460	 3.655285	 8.972765	 2.329746
